<svg xmlns="http://www.w3.org/2000/svg" viewBox="0 0 34.38 34.38">
    <title>icon-deposito</title>
    <g id="Capa_2" data-name="Capa 2">
        <g id="Capa_1-2" data-name="Capa 1">
            <path d="M31.26,0H3.12A3.14,3.14,0,0,0,0,3.12v25a3.12,3.12,0,0,0,3.12,3.12H4.45a3.13,3.13,0,0,0,3.13,3.13h.15a3.12,3.12,0,0,0,3.12-3.13H23.54a3.13,3.13,0,0,0,3.12,3.13h.15a3.13,3.13,0,0,0,3.13-3.13h1.32a3.12,3.12,0,0,0,3.12-3.12v-25A3.13,3.13,0,0,0,31.26,0ZM7.73,33.34H7.58a2.09,2.09,0,0,1-2.09-2.09H9.81A2.08,2.08,0,0,1,7.73,33.34Zm19.08,0h-.15a2.09,2.09,0,0,1-2.09-2.09h4.32A2.08,2.08,0,0,1,26.81,33.34Zm6.54-5.21a2.09,2.09,0,0,1-2.09,2.09H3.12A2.09,2.09,0,0,1,1,28.13v-25A2.09,2.09,0,0,1,3.12,1H31.26a2.09,2.09,0,0,1,2.09,2.08Z"
                  style="fill:#3a5f9b"/>
            <path d="M29.18,3.65h-24A1.56,1.56,0,0,0,3.65,5.21V7.84a.52.52,0,0,0,.52.53H6.25v3.12H4.17a.52.52,0,0,0-.52.53v7.29a.51.51,0,0,0,.52.51H6.25V23H4.17a.52.52,0,0,0-.52.52V26a1.57,1.57,0,0,0,1.56,1.58h24A1.57,1.57,0,0,0,30.74,26V5.21A1.56,1.56,0,0,0,29.18,3.65ZM29.7,26a.52.52,0,0,1-.52.53h-24A.52.52,0,0,1,4.69,26V24H6.77a.52.52,0,0,0,.52-.53V19.31a.52.52,0,0,0-.52-.52H4.69V12.54H6.77A.53.53,0,0,0,7.29,12V7.84a.53.53,0,0,0-.52-.53H4.69V5.21a.52.52,0,0,1,.52-.52h24a.52.52,0,0,1,.52.52Z"
                  style="fill:#3a5f9b"/>
            <path d="M23.6,10.48h0a0,0,0,0,1,0,0,7.32,7.32,0,0,0-10.28,0v0h0a7.27,7.27,0,0,0,0,10.29h0s0,0,0,0a7.29,7.29,0,0,0,10.28,0l0,0a0,0,0,0,0,0,0,7.3,7.3,0,0,0,0-10.29Zm-.4,9.17-4-4,4-4a6.21,6.21,0,0,1,0,8Zm-.74-8.8-4,4-4-4a6.29,6.29,0,0,1,8.06,0Zm-8.8.75,4,4-4,4a6.21,6.21,0,0,1,0-8Zm.74,8.8,4-4,4,4a6.23,6.23,0,0,1-8.06,0Z"
                  style="fill:#3a5f9b"/>
        </g>
    </g>
</svg>