<svg xmlns="http://www.w3.org/2000/svg" viewBox="0 0 34.35 40.77">
    <title>icon-venta</title>
    <g id="Capa_2" data-name="Capa 2">
        <g id="Capa_1-2" data-name="Capa 1">
            <path d="M33.05,12H1.29A1.31,1.31,0,0,0,0,13.26V27.53a1.29,1.29,0,0,0,1.29,1.29H33.05a1.3,1.3,0,0,0,1.3-1.29V13.26A1.31,1.31,0,0,0,33.05,12Zm-.66,11.79h0a4.78,4.78,0,0,0-.62.26l-.12.06a6.37,6.37,0,0,0-.55.35.15.15,0,0,0-.09.07,4.11,4.11,0,0,0-.5.42l0,0a4.06,4.06,0,0,0-.42.51l-.08.09a6.48,6.48,0,0,0-.33.57l-.06.11a4.35,4.35,0,0,0-.25.63h0a3.81,3.81,0,0,0-.15.65s0,.07,0,.09H5.26a.24.24,0,0,1,0-.09,5.18,5.18,0,0,0-.14-.66s0,0,0,0a4.89,4.89,0,0,0-.26-.65s0-.07,0-.1a4.76,4.76,0,0,0-.34-.57l-.07-.09a4.85,4.85,0,0,0-1-1,.2.2,0,0,1-.09-.07,6.48,6.48,0,0,0-.57-.33s-.07,0-.11-.06c-.21-.09-.42-.18-.64-.25,0,0,0,0,0,0a3.61,3.61,0,0,0-.67-.13.11.11,0,0,0-.08,0V17.23s.05,0,.08,0A4.68,4.68,0,0,0,2,17.06a0,0,0,0,0,0,0,3.1,3.1,0,0,0,.64-.24l.11-.05a5.28,5.28,0,0,0,.56-.35s.06,0,.1,0a5.87,5.87,0,0,0,1-1s0-.06.07-.1a3.58,3.58,0,0,0,.34-.57,1.17,1.17,0,0,0,0-.11A3.58,3.58,0,0,0,5.09,14s0,0,0,0a5.18,5.18,0,0,0,.14-.66.37.37,0,0,1,0-.09h23.9s0,.06,0,.09a3.92,3.92,0,0,0,.15.66v0c.07.2.15.41.25.63l.06.11c.1.18.21.36.33.55l.08.11a3.29,3.29,0,0,0,.42.49v0c.16.16.33.29.51.44l.09.07a3.48,3.48,0,0,0,.55.33l.12.06a3.76,3.76,0,0,0,.62.27h0a3.71,3.71,0,0,0,.66.15.11.11,0,0,0,.07,0v6.36l-.07,0A4.41,4.41,0,0,0,32.39,23.75Zm.72-10.49V16l0,0a3.54,3.54,0,0,1-.44-.11.17.17,0,0,0-.1,0,2.58,2.58,0,0,1-.37-.19h0a3.52,3.52,0,0,1-.38-.24l-.08-.08a3.07,3.07,0,0,1-.34-.29h0l-.28-.33a.35.35,0,0,0-.07-.09c-.08-.13-.16-.26-.23-.39s0,0,0,0a3.29,3.29,0,0,1-.17-.39s0,0,0-.09-.08-.29-.11-.44v0h2.64S33.11,13.23,33.11,13.26ZM1.29,13.19H4a.1.1,0,0,1,0,0c0,.15-.07.29-.11.44l0,.09c-.05.13-.11.28-.16.39s0,0,0,0a4.25,4.25,0,0,1-.25.39.26.26,0,0,0-.05.09,3.93,3.93,0,0,1-.65.64l-.09.06a2.4,2.4,0,0,1-.38.23l0,0-.4.16-.09,0a1.77,1.77,0,0,1-.44.11h0v-2.7A.09.09,0,0,1,1.29,13.19ZM1.23,27.53V24.82h0l.44.11a.18.18,0,0,0,.1,0,3.26,3.26,0,0,1,.38.18.08.08,0,0,1,.05,0,2.2,2.2,0,0,1,.38.24.18.18,0,0,1,.09.07,4.77,4.77,0,0,1,.65.62.15.15,0,0,0,.06.09c.08.13.17.26.24.39s0,0,0,.06.11.25.16.38a.36.36,0,0,0,0,.09c0,.15.08.29.11.44s0,0,0,0H1.29A.09.09,0,0,1,1.23,27.53Zm31.82.06H30.41v0c0-.17.07-.29.11-.44s0-.07,0-.11a3,3,0,0,1,.17-.37s0,0,0,0,.15-.26.23-.39a.46.46,0,0,0,.07-.07l.28-.33s0,0,0,0,.22-.2.34-.29l.08-.06a2.49,2.49,0,0,1,.38-.25s0,0,0,0a2.48,2.48,0,0,1,.37-.17l.1,0a2.44,2.44,0,0,1,.44-.13h0v2.69A.07.07,0,0,1,33.05,27.59Z"
                  style="fill:#247e2c"/>
            <path d="M17.17,17.08a1.45,1.45,0,0,1,1.54,1.36.62.62,0,0,0,.63.6.6.6,0,0,0,.61-.6,2.63,2.63,0,0,0-2.16-2.52v-.54a.62.62,0,0,0-1.23,0v.54a2.63,2.63,0,0,0-2.16,2.52A2.48,2.48,0,0,0,17.17,21c1,0,1.54.44,1.54,1.34a1.44,1.44,0,0,1-1.54,1.34,1.45,1.45,0,0,1-1.54-1.34.62.62,0,0,0-.62-.62.61.61,0,0,0-.61.62,2.63,2.63,0,0,0,2.16,2.51v.54a.62.62,0,1,0,1.23,0v-.54A2.63,2.63,0,0,0,20,22.36a2.49,2.49,0,0,0-2.78-2.58c-1,0-1.54-.46-1.54-1.34A1.46,1.46,0,0,1,17.17,17.08Z"
                  style="fill:#247e2c"/>
            <path d="M26.77,17.92h-.9a2,2,0,0,0-2,2v.9a2,2,0,0,0,2,2h.9a2,2,0,0,0,2-2v-.9A2,2,0,0,0,26.77,17.92Zm.78,2.92a.78.78,0,0,1-.78.79h-.9a.79.79,0,0,1-.79-.79v-.9a.8.8,0,0,1,.79-.79h.9a.8.8,0,0,1,.78.79Z"
                  style="fill:#247e2c"/>
            <path d="M8.48,17.92h-.9a2,2,0,0,0-2,2v.9a2,2,0,0,0,2,2h.9a2,2,0,0,0,2-2v-.9A2,2,0,0,0,8.48,17.92Zm.79,2.92a.79.79,0,0,1-.79.79h-.9a.78.78,0,0,1-.78-.79v-.9a.8.8,0,0,1,.78-.79h.9a.8.8,0,0,1,.79.79Z"
                  style="fill:#247e2c"/>
            <path d="M7,8.41c.08,0,8.11-4.53,13.48-1.58L18.74,8.61a.62.62,0,0,0,.44,1.06h8.43a.61.61,0,0,0,.61-.62V.63A.64.64,0,0,0,27.85,0a.64.64,0,0,0-.68.15L25.12,2.24c-2.2-.79-13-4.05-18.9,5.3a.62.62,0,0,0,.07.76A.6.6,0,0,0,7,8.41ZM25,3.53a.63.63,0,0,0,.68-.13L27,2.12V8.44H20.67L22,7.16a.65.65,0,0,0,.18-.5.6.6,0,0,0-.27-.45c-4.2-2.92-9.93-1.29-13.09,0C15-.6,24.59,3.34,25,3.53Z"
                  style="fill:#247e2c"/>
            <path d="M27.31,32.37c-.09.06-8.11,4.55-13.48,1.58l1.78-1.78a.63.63,0,0,0,.13-.68.64.64,0,0,0-.57-.38H6.74a.61.61,0,0,0-.61.62v8.44a.63.63,0,0,0,.37.57.66.66,0,0,0,.24,0,.6.6,0,0,0,.43-.16l2.05-2.06c2.2.79,13,4,18.91-5.31a.63.63,0,0,0-.07-.76A.6.6,0,0,0,27.31,32.37Zm-18,4.88a.61.61,0,0,0-.68.15L7.35,38.68V32.36h6.33L12.4,33.62a.64.64,0,0,0-.18.5.59.59,0,0,0,.26.45c4.21,2.94,9.94,1.29,13.1,0C19.36,41.38,9.75,37.45,9.32,37.25Z"
                  style="fill:#247e2c"/>
        </g>
    </g>
</svg>